<?xml version="1.0"?>
<svg width="24" height="24" xmlns="http://www.w3.org/2000/svg" xmlns:svg="http://www.w3.org/2000/svg" class="w-6 h-6">
 <title>Google Icon</title>
 <g class="layer">
  <title>Layer 1</title>
  <path d="m5.27,9.76c0.93,-2.82 3.58,-4.85 6.73,-4.85c1.69,0 3.22,0.6 4.42,1.58l3.49,-3.49c-2.13,-1.85 -4.86,-3 -7.91,-3c-4.73,0 -8.8,2.7 -10.76,6.65l4.03,3.11z" fill="#EA4335" id="svg_1"/>
  <path d="m16.04,18.01c-1.09,0.71 -2.47,1.08 -4.04,1.08c-3.13,0 -5.78,-2.01 -6.72,-4.82l-4.04,3.07c1.95,3.96 6.02,6.66 10.76,6.66c2.93,0 5.74,-1.04 7.83,-3l-3.79,-2.99z" fill="#34A853" id="svg_2"/>
  <path d="m19.83,21c2.2,-2.05 3.62,-5.1 3.62,-9c0,-0.71 -0.1,-1.47 -0.27,-2.18l-11.18,0l0,4.63l6.44,0c-0.32,1.56 -1.17,2.77 -2.4,3.56l3.79,2.99z" fill="#4A90E2" id="svg_3"/>
  <path d="m5.28,14.27c-0.24,-0.72 -0.37,-1.48 -0.37,-2.27c0,-0.78 0.12,-1.53 0.36,-2.24l-4.03,-3.11c-0.8,1.61 -1.24,3.42 -1.24,5.35c0,1.92 0.44,3.73 1.24,5.33l4.04,-3.06z" fill="#FBBC05" id="svg_4"/>
 </g>
</svg>